<svg width="24" height="19" viewBox="0 0 24 19" fill="none" xmlns="http://www.w3.org/2000/svg">
<g clip-path="url(#clip0_2_143)">
<path d="M15.2953 8.11953C15.2953 8.88027 14.5125 9.5 13.5516 9.5H10.2563V6.73906H13.5516C14.5125 6.73906 15.2953 7.35879 15.2953 8.11953ZM23.625 9.5C23.625 14.584 18.4219 18.7031 12 18.7031C5.57812 18.7031 0.375 14.584 0.375 9.5C0.375 4.41602 5.57812 0.296875 12 0.296875C18.4219 0.296875 23.625 4.41602 23.625 9.5ZM17.6203 8.11953C17.6203 6.34199 15.7969 4.89844 13.5516 4.89844H7.93125V14.1016H10.2563V11.3406H13.5516C15.7969 11.3406 17.6203 9.89707 17.6203 8.11953Z" fill="black"/>
</g>
<defs>
<clipPath id="clip0_2_143">
<rect width="24" height="19" fill="white"/>
</clipPath>
</defs>
</svg>
