<svg width="18" height="18" viewBox="0 0 18 18" fill="none" xmlns="http://www.w3.org/2000/svg">
<g clip-path="url(#clip0_2_149)">
<path d="M9 1.6875C10.9394 1.6875 12.7994 2.45792 14.1707 3.82928C15.5421 5.20064 16.3125 7.0606 16.3125 9C16.3125 10.9394 15.5421 12.7994 14.1707 14.1707C12.7994 15.5421 10.9394 16.3125 9 16.3125C7.0606 16.3125 5.20064 15.5421 3.82928 14.1707C2.45792 12.7994 1.6875 10.9394 1.6875 9C1.6875 7.0606 2.45792 5.20064 3.82928 3.82928C5.20064 2.45792 7.0606 1.6875 9 1.6875ZM9 18C11.3869 18 13.6761 17.0518 15.364 15.364C17.0518 13.6761 18 11.3869 18 9C18 6.61305 17.0518 4.32387 15.364 2.63604C13.6761 0.948212 11.3869 0 9 0C6.61305 0 4.32387 0.948212 2.63604 2.63604C0.948212 4.32387 0 6.61305 0 9C0 11.3869 0.948212 13.6761 2.63604 15.364C4.32387 17.0518 6.61305 18 9 18ZM7.01016 10.9898C5.91328 9.89297 5.91328 8.11055 7.01016 7.01367C8.10703 5.9168 9.88945 5.9168 10.9863 7.01367C11.3168 7.34414 11.8512 7.34414 12.1781 7.01367C12.5051 6.6832 12.5086 6.14883 12.1781 5.82188C10.4203 4.06406 7.57266 4.06406 5.81484 5.82188C4.05703 7.57969 4.05703 10.4273 5.81484 12.1852C7.57266 13.943 10.4203 13.943 12.1781 12.1852C12.5086 11.8547 12.5086 11.3203 12.1781 10.9934C11.8477 10.6664 11.3133 10.6629 10.9863 10.9934C9.88945 12.0902 8.10703 12.0902 7.01016 10.9934V10.9898Z" fill="black"/>
</g>
<defs>
<clipPath id="clip0_2_149">
<rect width="18" height="18" fill="white"/>
</clipPath>
</defs>
</svg>
