<svg width="15" height="20" viewBox="0 0 15 20" fill="none" xmlns="http://www.w3.org/2000/svg">
<g clip-path="url(#clip0_2_124)">
<path d="M3.125 1.875C3.46875 1.875 3.75 2.15625 3.75 2.5V8.125V9.375H3.125C2.91016 9.375 2.70312 9.39844 2.5 9.4375V2.5C2.5 2.15625 2.78125 1.875 3.125 1.875ZM0.625 2.5V10.625C0.234375 11.1484 0 11.7969 0 12.5V13.4375C0 17.0625 2.9375 20 6.5625 20H8.4375C12.0625 20 15 17.0625 15 13.4375V11.25V10V5C15 3.62109 13.8789 2.5 12.5 2.5C11.1211 2.5 10 3.62109 10 5V6.95312C9.80078 6.90234 9.58984 6.875 9.375 6.875C9.06641 6.875 8.77344 6.92969 8.5 7.03125C8.09375 6.19922 7.23828 5.625 6.25 5.625C6.03516 5.625 5.82422 5.65234 5.625 5.70312V2.5C5.625 1.12109 4.50391 0 3.125 0C1.74609 0 0.625 1.12109 0.625 2.5ZM13.125 10V11.25V13.4375C13.125 16.0273 11.0273 18.125 8.4375 18.125H6.5625C3.97266 18.125 1.875 16.0273 1.875 13.4375V12.5C1.875 11.8086 2.43359 11.25 3.125 11.25H4.6875H6.25C6.59375 11.25 6.875 11.5312 6.875 11.875C6.875 12.2188 6.59375 12.5 6.25 12.5H4.6875C4.16797 12.5 3.75 12.918 3.75 13.4375C3.75 13.957 4.16797 14.375 4.6875 14.375H6.25C6.83984 14.375 7.38281 14.168 7.8125 13.8281C8.24219 14.1719 8.78516 14.375 9.375 14.375C10.7539 14.375 11.875 13.2539 11.875 11.875V10V9.375V5C11.875 4.65625 12.1562 4.375 12.5 4.375C12.8438 4.375 13.125 4.65625 13.125 5V10ZM6.25 9.375H5.625V8.125C5.625 7.78125 5.90625 7.5 6.25 7.5C6.59375 7.5 6.875 7.78125 6.875 8.125V9.375V9.45312C6.67578 9.40234 6.46484 9.375 6.25 9.375ZM10 10V11.875C10 12.2188 9.71875 12.5 9.375 12.5C9.03125 12.5 8.75 12.2188 8.75 11.875V10.3125V9.375C8.75 9.03125 9.03125 8.75 9.375 8.75C9.71875 8.75 10 9.03125 10 9.375V10Z" fill="black"/>
</g>
<defs>
<clipPath id="clip0_2_124">
<rect width="15" height="20" fill="white"/>
</clipPath>
</defs>
</svg>
