<svg width="16" height="16" viewBox="0 0 16 16" fill="none" xmlns="http://www.w3.org/2000/svg">
<g clip-path="url(#clip0_2_78)">
<path d="M10.5 0C10.225 0 10 0.225 10 0.5C10 0.775 10.225 1 10.5 1H14.2937L6.64687 8.64688C6.45312 8.84063 6.45312 9.15937 6.64687 9.35312C6.84062 9.54688 7.15938 9.54688 7.35313 9.35312L15 1.70625V5.5C15 5.775 15.225 6 15.5 6C15.775 6 16 5.775 16 5.5V0.5C16 0.225 15.775 0 15.5 0H10.5ZM2 1C0.896875 1 0 1.89688 0 3V14C0 15.1031 0.896875 16 2 16H13C14.1031 16 15 15.1031 15 14V9.5C15 9.225 14.775 9 14.5 9C14.225 9 14 9.225 14 9.5V14C14 14.5531 13.5531 15 13 15H2C1.44687 15 1 14.5531 1 14V3C1 2.44688 1.44687 2 2 2H6.5C6.775 2 7 1.775 7 1.5C7 1.225 6.775 1 6.5 1H2Z" fill="black"/>
</g>
<defs>
<clipPath id="clip0_2_78">
<rect width="16" height="16" fill="white"/>
</clipPath>
</defs>
</svg>
