<svg width="24" height="19" viewBox="0 0 24 19" fill="none" xmlns="http://www.w3.org/2000/svg">
<g clip-path="url(#clip0_2_134)">
<path d="M12 0.296875C5.58994 0.296875 0.375 4.42537 0.375 9.5C0.375 14.5746 5.58994 18.7031 12 18.7031C18.4101 18.7031 23.625 14.5746 23.625 9.5C23.625 4.42537 18.4101 0.296875 12 0.296875ZM19.6861 4.54093C21.069 5.87857 21.9065 7.5823 21.9284 9.43769C21.601 9.38288 18.3181 8.85574 15.0142 9.18468C14.7446 8.66363 14.4901 8.20525 14.1415 7.64041C17.8128 6.45377 19.4767 4.7651 19.6861 4.54093ZM18.5822 3.63189C18.4036 3.83329 16.9089 5.42376 13.3781 6.47147C11.751 4.10478 9.94758 2.16054 9.67313 1.86961C12.822 1.2687 16.1403 1.91674 18.5822 3.63189ZM7.77848 2.39801C8.04028 2.68223 9.81464 4.62887 11.4599 6.94424C6.8152 7.9207 2.72428 7.90663 2.28019 7.902C2.92406 5.46269 5.00053 3.43533 7.77848 2.39801ZM2.07047 9.51199C2.07047 9.43161 2.07248 9.3516 2.07553 9.27178C2.50997 9.27883 7.32178 9.32792 12.2805 8.15308C12.5648 8.59349 12.8363 9.04055 13.0855 9.48712C9.49495 10.2878 6.23269 12.5868 4.62314 14.768C3.03722 13.3744 2.07047 11.531 2.07047 9.51199ZM5.90517 15.7134C6.94237 14.0349 9.75727 11.8681 13.7604 10.787C15.1545 13.6549 15.731 16.0585 15.8787 16.7481C12.6859 17.8248 8.84672 17.5294 5.90517 15.7134ZM17.548 16.0285C17.4462 15.5503 16.9177 13.2491 15.619 10.4237C18.7305 10.0294 21.4643 10.6749 21.804 10.7598C21.3614 12.947 19.7756 14.836 17.548 16.0285Z" fill="black"/>
</g>
<defs>
<clipPath id="clip0_2_134">
<rect width="24" height="19" fill="white"/>
</clipPath>
</defs>
</svg>
