<svg width="24" height="19" viewBox="0 0 24 19" fill="none" xmlns="http://www.w3.org/2000/svg">
<path d="M3 4.15625C2.5875 4.15625 2.25 4.42344 2.25 4.75V5.57012L10.3359 10.8248C11.3062 11.4557 12.6984 11.4557 13.6688 10.8248L21.75 5.57012V4.75C21.75 4.42344 21.4125 4.15625 21 4.15625H3ZM2.25 7.87461V14.25C2.25 14.5766 2.5875 14.8438 3 14.8438H21C21.4125 14.8438 21.75 14.5766 21.75 14.25V7.87461L15.0938 12.2016C13.2937 13.3705 10.7016 13.3705 8.90625 12.2016L2.25 7.87461ZM0 4.75C0 3.44004 1.34531 2.375 3 2.375H21C22.6547 2.375 24 3.44004 24 4.75V14.25C24 15.56 22.6547 16.625 21 16.625H3C1.34531 16.625 0 15.56 0 14.25V4.75Z" fill="black"/>
</svg>
