<svg width="24" height="19" viewBox="0 0 24 19" fill="none" xmlns="http://www.w3.org/2000/svg">
<path d="M21.533 5.62997C21.5482 5.79875 21.5482 5.96756 21.5482 6.13633C21.5482 11.2841 16.599 17.2156 7.5533 17.2156C4.76648 17.2156 2.17767 16.5766 0 15.4676C0.395953 15.5037 0.776625 15.5158 1.18781 15.5158C3.48727 15.5158 5.60405 14.9009 7.29441 13.8521C5.13197 13.8159 3.31978 12.6947 2.69541 11.1516C3 11.1877 3.30455 11.2118 3.62437 11.2118C4.06598 11.2118 4.50764 11.1636 4.91878 11.0792C2.66498 10.7175 0.974578 9.15028 0.974578 7.25752V7.20931C1.62937 7.49865 2.39086 7.67949 3.19791 7.70357C1.87303 7.00432 1.00505 5.81081 1.00505 4.46055C1.00505 3.73721 1.24866 3.07414 1.67508 2.49546C4.09641 4.85839 7.73602 6.40151 11.8172 6.57032C11.7411 6.28098 11.6954 5.97962 11.6954 5.67822C11.6954 3.53225 13.8883 1.78418 16.6141 1.78418C18.0304 1.78418 19.3095 2.25436 20.208 3.01387C21.3197 2.8451 22.3857 2.51958 23.3299 2.07352C22.9643 2.97773 22.1877 3.73725 21.1674 4.21945C22.1573 4.1351 23.1167 3.91804 23.9999 3.61668C23.33 4.38822 22.4924 5.07537 21.533 5.62997Z" fill="black"/>
</svg>
