<svg width="24" height="19" viewBox="0 0 24 19" fill="none" xmlns="http://www.w3.org/2000/svg">
<path d="M5.37214 16.6251H0.396429V5.5257H5.37214V16.6251ZM2.88161 4.01164C1.29054 4.01164 0 3.09875 0 1.9966C1.13882e-08 1.4672 0.303597 0.95948 0.844003 0.585136C1.38441 0.210792 2.11736 0.000488281 2.88161 0.000488281C3.64586 0.000488281 4.3788 0.210792 4.91921 0.585136C5.45962 0.95948 5.76321 1.4672 5.76321 1.9966C5.76321 3.09875 4.47214 4.01164 2.88161 4.01164ZM23.9946 16.6251H19.0296V11.222C19.0296 9.9343 18.9921 8.28293 16.4427 8.28293C13.8557 8.28293 13.4593 9.68195 13.4593 11.1292V16.6251H8.48893V5.5257H13.2611V7.03977H13.3307C13.995 6.1677 15.6177 5.24738 18.0386 5.24738C23.0743 5.24738 24 7.54445 24 10.528V16.6251H23.9946Z" fill="black"/>
</svg>
