<svg width="411" height="50" viewBox="0 0 411 50" fill="none" xmlns="http://www.w3.org/2000/svg">
<path d="M0.216675 10.6082L16.9666 15.539L0.216675 20.433V10.6082Z" fill="#683292"/>
<path d="M165.735 10.6082L148.985 15.539L165.735 20.433V10.6082Z" fill="#683292"/>
<path d="M0.216675 0.786133L16.9666 5.71411L0.216675 10.6082V0.786133Z" fill="#762A81"/>
<path d="M165.735 0.786133L148.985 5.71411L165.735 10.6082V0.786133Z" fill="#762A81"/>
<path d="M0.216675 20.4331L16.9666 25.3611L0.216675 30.2552V20.4331Z" fill="#573995"/>
<path d="M165.735 20.4331L148.985 25.3611L165.735 30.2552V20.4331Z" fill="#573995"/>
<path d="M16.9666 25.3611L0.216675 20.4332L16.9666 15.5391V25.3611Z" fill="#4C286E"/>
<path d="M148.985 25.3611L165.735 20.4332L148.985 15.5391V25.3611Z" fill="#4C286E"/>
<path d="M16.9666 15.539L0.216675 10.6082L16.9666 5.71411V15.539Z" fill="#932A8F"/>
<path d="M148.985 15.539L165.735 10.6082L148.985 5.71411V15.539Z" fill="#932A8F"/>
<path d="M0.216675 40.0801L16.9666 45.0081L0.216675 49.9021V40.0801Z" fill="#147FB5"/>
<path d="M165.735 40.0801L148.985 45.0081L165.735 49.9021V40.0801Z" fill="#147FB5"/>
<path d="M0.216675 30.2551L16.9666 35.1859L0.216675 40.08V30.2551Z" fill="#2BA8E0"/>
<path d="M165.735 30.2551L148.985 35.1859L165.735 40.08V30.2551Z" fill="#2BA8E0"/>
<path d="M33.4799 20.4668L16.9667 15.5389L33.4799 10.6448V20.4668Z" fill="#B31F6B"/>
<path d="M132.471 20.4668L148.985 15.5389L132.471 10.6448V20.4668Z" fill="#B31F6B"/>
<path d="M16.9666 45.0081L0.216675 40.0801L16.9666 35.186V45.0081Z" fill="#1257A3"/>
<path d="M148.985 45.0081L165.735 40.0801L148.985 35.186V45.0081Z" fill="#1257A3"/>
<path d="M16.9666 35.186L0.216675 30.2552L16.9666 25.3611V35.186Z" fill="#2057A6"/>
<path d="M148.985 35.186L165.735 30.2552L148.985 25.3611V35.186Z" fill="#2057A6"/>
<path d="M16.9667 5.71411L33.4799 10.6449L16.9667 15.539V5.71411Z" fill="#762A81"/>
<path d="M148.985 5.71411L132.471 10.6449L148.985 15.539V5.71411Z" fill="#762A81"/>
<path d="M50.0427 25.4035L33.4799 20.4671L50.0868 15.5786L50.0427 25.4035Z" fill="#B61F42"/>
<path d="M115.909 25.4035L132.471 20.4671L115.87 15.5786L115.909 25.4035Z" fill="#B61F42"/>
<path d="M33.4799 10.6448L50.0868 15.5784L33.4799 20.4668V10.6448Z" fill="#DA1D5E"/>
<path d="M132.471 10.6448L115.87 15.5784L132.471 20.4668V10.6448Z" fill="#DA1D5E"/>
<path d="M82.9757 15.5672L66.6495 10.6929V20.5149L82.9757 15.6773L99.3073 20.5149V10.6929L82.9757 15.5672Z" fill="#FCB516"/>
<path d="M82.9757 35.2141L50.0428 25.4033L16.9667 35.1858V45.0079L50.0042 35.2254L82.9757 45.0079L115.947 35.2254L148.985 45.0079V35.1858L115.909 25.4033L82.9757 35.2141Z" fill="#1E194E"/>
<path d="M82.9757 5.85254L66.6495 10.693L82.9757 15.5673L99.3073 10.693L82.9757 5.85254Z" fill="#F8D906"/>
<path d="M50.0427 25.4035L66.6496 20.5151L50.0868 15.5786L50.0427 25.4035Z" fill="#F1692D"/>
<path d="M115.909 25.4035L99.3073 20.5151L115.87 15.5786L115.909 25.4035Z" fill="#F1692D"/>
<path d="M66.6495 10.6929L50.0867 15.5785L66.6495 20.5149V10.6929Z" fill="#F79420"/>
<path d="M99.3073 10.6929L115.87 15.5785L99.3073 20.5149V10.6929Z" fill="#F79420"/>
<path d="M218.334 30.1882C217.891 30.1894 217.451 30.1456 217.04 30.0592C216.63 29.9728 216.257 29.8456 215.943 29.6849C215.629 29.5241 215.38 29.3331 215.21 29.1228C215.041 28.9124 214.954 28.687 214.955 28.4594V24.497C214.954 24.2692 215.041 24.0435 215.21 23.8329C215.379 23.6223 215.628 23.4309 215.942 23.2699C216.256 23.1088 216.629 22.9811 217.04 22.8942C217.45 22.8073 217.89 22.7629 218.334 22.7635C218.779 22.7591 219.221 22.8021 219.631 22.8897C220.042 22.9774 220.413 23.1078 220.72 23.2728C221.038 23.4318 221.289 23.6223 221.458 23.8328C221.627 24.0433 221.711 24.2694 221.704 24.497V25.3241H219.491V24.497C219.5 24.4106 219.473 24.3243 219.412 24.2437C219.35 24.1631 219.256 24.0902 219.136 24.0298C219.023 23.9707 218.888 23.9238 218.74 23.8918C218.591 23.8597 218.432 23.8432 218.27 23.8432C218.109 23.8432 217.95 23.8597 217.801 23.8918C217.653 23.9238 217.518 23.9707 217.405 24.0298C217.285 24.0902 217.191 24.1631 217.129 24.2437C217.068 24.3243 217.041 24.4106 217.05 24.497V28.4594C217.048 28.5411 217.078 28.6223 217.139 28.6978C217.2 28.7734 217.291 28.8417 217.405 28.8986C217.635 29.0156 217.946 29.0812 218.27 29.0812C218.594 29.0812 218.905 29.0156 219.136 28.8986C219.25 28.8417 219.341 28.7734 219.402 28.6978C219.463 28.6223 219.493 28.5411 219.491 28.4594V27.4594H221.704V28.4687C221.704 28.9272 221.349 29.367 220.717 29.6912C220.085 30.0154 219.228 30.1976 218.334 30.1976V30.1882Z" fill="#1E194E"/>
<path d="M233.006 22.8569C233.488 22.8358 233.972 22.8701 234.424 22.9574C234.877 23.0447 235.285 23.1828 235.62 23.3615C236.146 23.7104 236.405 24.1457 236.349 24.5857V25.6371C236.355 25.8826 236.257 26.1259 236.062 26.3502C235.867 26.5745 235.58 26.7744 235.219 26.936L236.795 30.0947H234.491L233.197 27.3706H231.786V30.104H229.655V22.8569H233.006ZM234.281 24.6044C234.305 24.5191 234.291 24.4321 234.238 24.3502C234.185 24.2684 234.096 24.1939 233.978 24.1328C233.86 24.0716 233.715 24.0253 233.556 23.9977C233.397 23.9701 233.227 23.9619 233.061 23.9736H231.786V26.2865H233.061C233.229 26.2918 233.398 26.2782 233.555 26.2468C233.712 26.2153 233.855 26.1667 233.972 26.1043C234.086 26.0466 234.177 25.9774 234.238 25.9011C234.299 25.8248 234.329 25.7429 234.327 25.6604L234.281 24.6044Z" fill="#1E194E"/>
<path d="M244.855 30.1041V22.8616H250.911V23.9596H246.986V25.9361H249.855V27.0295H246.986V29.006H250.911V30.1041H244.855Z" fill="#1E194E"/>
<path d="M261.357 28.4313L260.838 30.0948H258.625L261.02 22.8569H263.944L266.312 30.0948H264.071L263.58 28.4313H261.357ZM262.478 24.5157L261.685 27.3706H263.261L262.478 24.5157Z" fill="#1E194E"/>
<path d="M274.618 23.955H272.35V22.8569H278.999V23.955H276.74V30.1041H274.618V23.955Z" fill="#1E194E"/>
<path d="M289.08 30.1041H286.949V22.8569H289.08V30.1041Z" fill="#1E194E"/>
<path d="M299.627 30.104L297.104 22.8662H299.335L301.102 28.5107L302.924 22.8662H305.155L302.55 30.104H299.627Z" fill="#1E194E"/>
<path d="M313.142 30.1041V22.8616H319.199V23.9596H315.264V25.9361H318.142V27.0295H315.264V29.006H319.199V30.1041H313.142Z" fill="#1E194E"/>
<path d="M341.648 28.2913C341.692 28.7551 341.421 29.2123 340.883 29.5856C340.533 29.8335 340.034 30.0156 339.463 30.1042C339.079 30.1639 338.679 30.1922 338.279 30.1883C337.539 30.2027 336.81 30.0892 336.211 29.8659C335.737 29.6828 335.364 29.4397 335.127 29.1604C334.845 28.8377 334.684 28.4905 334.654 28.1371L336.685 28.0623C336.702 28.4018 336.932 28.7295 337.341 28.9968C337.449 29.0657 337.589 29.12 337.748 29.155C337.906 29.19 338.079 29.2046 338.251 29.1978C338.481 29.1956 338.705 29.1619 338.9 29.1003C339.095 29.0387 339.255 28.9513 339.362 28.8473C339.52 28.7053 339.596 28.5433 339.581 28.3801C339.549 28.0406 339.262 27.7207 338.779 27.4876C338.361 27.282 337.732 26.9736 336.885 26.5531C336.3 26.2811 335.797 25.9662 335.392 25.6186C335.077 25.3033 334.915 24.954 334.918 24.6C334.884 24.3158 334.984 24.0316 335.209 23.7714C335.434 23.5112 335.778 23.2825 336.211 23.1047C336.79 22.8939 337.488 22.7871 338.197 22.801C338.88 22.7911 339.556 22.8802 340.146 23.058C340.574 23.1988 340.925 23.3934 341.166 23.6234C341.43 23.8831 341.588 24.1677 341.63 24.4598L339.59 24.6513C339.56 24.4013 339.389 24.161 339.098 23.9598C338.993 23.899 338.862 23.8514 338.715 23.8206C338.568 23.7898 338.409 23.7767 338.251 23.7823C338.067 23.7782 337.884 23.8005 337.723 23.8467C337.563 23.8929 337.43 23.9612 337.341 24.0439C337.168 24.2071 337.083 24.391 337.095 24.5766C337.131 24.9534 337.428 25.3112 337.933 25.5859C338.203 25.7575 338.509 25.9141 338.843 26.0531C339.184 26.2001 339.509 26.3561 339.818 26.5204C340.294 26.7539 340.702 27.0215 341.029 27.3147C341.153 27.4245 341.263 27.5385 341.357 27.6558C341.524 27.8576 341.622 28.0725 341.648 28.2913Z" fill="#1E194E"/>
<path d="M351.621 23.955H349.353V22.8569H356.002V23.955H353.743V30.1041H351.621V23.955Z" fill="#1E194E"/>
<path d="M367.304 30.1742C366.862 30.1767 366.424 30.134 366.014 30.0485C365.605 29.9631 365.233 29.8366 364.92 29.6765C364.607 29.5163 364.359 29.3258 364.192 29.1161C364.024 28.9063 363.94 28.6815 363.943 28.4547V22.8477H366.029V28.4314C366.025 28.5139 366.055 28.596 366.116 28.6724C366.177 28.7488 366.268 28.8179 366.384 28.8753C366.614 28.9923 366.925 29.0579 367.249 29.0579C367.573 29.0579 367.884 28.9923 368.114 28.8753C368.23 28.8179 368.321 28.7488 368.383 28.6724C368.444 28.596 368.473 28.5139 368.47 28.4314V22.857H370.683V28.4641C370.693 28.6924 370.61 28.9193 370.439 29.1301C370.268 29.341 370.013 29.5311 369.69 29.6883C369.377 29.8479 369.004 29.9733 368.594 30.0568C368.184 30.1404 367.745 30.1803 367.304 30.1742Z" fill="#1E194E"/>
<path d="M385.51 28.3613C385.517 28.5889 385.433 28.8149 385.264 29.0254C385.095 29.2359 384.844 29.4265 384.526 29.5855C384.223 29.7494 383.857 29.8792 383.451 29.9669C383.045 30.0546 382.608 30.0981 382.167 30.0948H378.825V22.8523H382.167C382.609 22.8483 383.048 22.8915 383.456 22.9792C383.863 23.0669 384.231 23.1971 384.535 23.3616C384.85 23.5206 385.098 23.7106 385.266 23.9202C385.433 24.1298 385.516 24.3546 385.51 24.5811V28.3613ZM380.956 29.0154H382.267C382.427 29.0158 382.586 28.9994 382.733 28.9673C382.88 28.9352 383.013 28.8879 383.123 28.8285C383.236 28.7701 383.324 28.7007 383.384 28.6245C383.443 28.5482 383.472 28.4667 383.47 28.3846V24.5952C383.472 24.5127 383.442 24.4308 383.381 24.3545C383.32 24.2781 383.229 24.209 383.114 24.1513C383.005 24.0928 382.873 24.0465 382.728 24.0152C382.582 23.9838 382.425 23.9681 382.267 23.969H380.983L380.956 29.0154Z" fill="#1E194E"/>
<path d="M395.746 30.1041H393.624V22.8569H395.746V30.1041Z" fill="#1E194E"/>
<path d="M407.24 22.7681C407.683 22.7675 408.122 22.8117 408.532 22.8983C408.942 22.9849 409.315 23.1122 409.629 23.2728C409.942 23.4334 410.191 23.6242 410.361 23.8342C410.531 24.0443 410.619 24.2695 410.619 24.4969V28.4499C410.643 28.6848 410.573 28.9198 410.414 29.1404C410.255 29.3611 410.011 29.5629 409.695 29.7334C409.379 29.904 408.999 30.0399 408.578 30.1327C408.157 30.2255 407.703 30.2734 407.244 30.2734C406.786 30.2734 406.332 30.2255 405.911 30.1327C405.49 30.0399 405.11 29.904 404.794 29.7334C404.478 29.5629 404.234 29.3611 404.075 29.1404C403.916 28.9198 403.846 28.6848 403.87 28.4499V24.4969C403.87 24.2699 403.957 24.0451 404.127 23.8353C404.296 23.6256 404.544 23.435 404.857 23.2744C405.17 23.1139 405.542 22.9866 405.95 22.8997C406.359 22.8128 406.797 22.7681 407.24 22.7681ZM408.397 24.4736C408.397 24.3088 408.269 24.1507 408.042 24.0341C407.815 23.9176 407.507 23.8521 407.185 23.8521C407.017 23.8486 406.85 23.863 406.693 23.8944C406.536 23.9258 406.394 23.9734 406.275 24.0343C406.16 24.0912 406.069 24.1595 406.008 24.2351C405.947 24.3106 405.917 24.3918 405.919 24.4736V28.4359C405.917 28.5184 405.947 28.6003 406.008 28.6766C406.069 28.7529 406.16 28.8221 406.275 28.8798C406.394 28.9407 406.536 28.9884 406.693 29.0197C406.85 29.0511 407.017 29.0655 407.185 29.062C407.345 29.0633 407.503 29.0478 407.65 29.0164C407.797 28.9851 407.931 28.9386 408.041 28.8798C408.156 28.8221 408.247 28.7529 408.308 28.6766C408.369 28.6003 408.399 28.5184 408.397 28.4359V24.4736Z" fill="#1E194E"/>
</svg>
